<svg xmlns="http://www.w3.org/2000/svg" viewBox="0 0 630 430" class="svg-logo" width="315" height="215" style="height: auto;"><rect rx="10" ry="10" width="100%" height="100%" fill="rgba(89, 84, 91, 1.0)"></rect><g data-element="wrapper" transform="translate(-252.0000000000033 -167.50001373291238) scale(1.8000000000000105)"><g><g data-element="icon" transform="scale(0.16188069133600508) translate(1648.238198536437 805.0243496305692)"><path id="color_x5F_1_11_" fill="rgba(240, 240, 240, 1.0)" d="M558.223,367.41c-2.351-11.409-11.85-19.515-22.862-20.606l-39.554-191.962    c7.242-5.92,11.035-15.561,9.016-25.358c-2.893-14.046-16.624-23.088-30.673-20.193c-3.669,0.756-6.991,2.256-9.853,4.303    L284.406,57.737c-2.22-17.656-15.657-25.124-30.962-21.909c-25.008,5.253-21.508,30.503-19.49,33.35L72.348,217.836    c-4.619-1.901-9.838-2.492-15.1-1.408c-14.045,2.894-23.086,16.628-20.192,30.674c2.323,11.274,11.632,19.316,22.476,20.559    l45.155,171.274c-5.78,5.963-8.606,14.586-6.804,23.332c2.895,14.047,16.627,23.086,30.674,20.192    c5.188-1.069,9.688-3.619,13.16-7.114l191.837,63.654c0.03,0.149,0.051,0.299,0.081,0.447c2.894,14.047,16.626,23.088,30.673,20.193    c14.047-2.894,25.877-16.309,18.927-34.924l137.726-128.953c5.08,2.603,11.043,3.563,17.068,2.32    C552.076,395.189,561.115,381.456,558.223,367.41z M477.085,123.533c6.18-1.274,12.222,2.704,13.496,8.884    c1.272,6.182-2.704,12.224-8.886,13.497c-6.179,1.273-12.223-2.705-13.497-8.885C466.924,130.849,470.906,124.806,477.085,123.533z     M466.221,157.103l-54.738,150.693c-3.047-0.965-8.297-0.215-13.065,1.138L295.285,202.103c2.114-3.687,3.331-7.896,3.431-12.292    l158.144-42.178C459.127,151.593,462.379,154.839,466.221,157.103z M409.43,344.585c-6.179,1.273-12.224-2.704-13.498-8.885    c-1.273-6.18,2.705-12.223,8.887-13.496c6.18-1.274,12.223,2.704,13.496,8.885C419.588,337.269,415.609,343.312,409.43,344.585z     M199.822,324.892c-3.136-1.061-10.886-1.061-18.116,4.781l-96.573-75.112c1.985-3.536,3.155-7.544,3.308-11.729l161.888-40.547    c1.218,2.086,2.706,3.971,4.415,5.613L199.822,324.892z M199.247,361.892c-6.178,1.273-12.223-2.704-13.496-8.885    c-1.275-6.181,2.707-12.223,8.885-13.496c6.182-1.275,12.223,2.703,13.496,8.884S205.428,360.618,199.247,361.892z M269.875,215.006    c8.061,1.325,12.875-1.724,14.987-2.836l101.711,105.36c-2.213,2.867-3.823,6.184-4.689,9.742l-160.734,14.041    c-1.389-3.594-3.527-6.748-6.196-9.314L269.875,215.006z M282.22,72.231l172.756,53.642c-0.885,2.434-1.414,5.017-1.531,7.673    l-158.439,42.258c-3.781-6.279-10.072-10.675-17.221-12.089l-6.998-79.48C275.868,81.562,279.851,77.304,282.22,72.231z     M283.949,186.892c1.273,6.18-2.704,12.223-8.885,13.496s-12.225-2.704-13.498-8.884c-1.273-6.181,2.706-12.224,8.885-13.497    C276.633,176.732,282.672,180.711,283.949,186.892z M256.377,50.07c6.182-1.273,12.223,2.705,13.496,8.885    c1.273,6.181-2.703,12.224-8.885,13.497c-6.178,1.273-12.222-2.704-13.496-8.885C246.217,57.387,250.2,51.345,256.377,50.07z     M242.176,81.302c4.02,3.306,9.003,5.388,14.321,5.836l6.854,77.857c-9.686,3.752-16.169,12.964-16.544,23.232L84.917,228.774    c-0.354-0.607-0.727-1.201-1.127-1.772L242.176,81.302z M64.796,253.052c-6.181,1.273-12.224-2.704-13.498-8.885    c-1.273-6.181,2.706-12.224,8.885-13.496c6.183-1.274,12.225,2.704,13.498,8.885C74.953,245.735,70.977,251.778,64.796,253.052z     M125.622,468.216c-6.18,1.273-12.222-2.703-13.495-8.885c-1.276-6.18,2.706-12.223,8.884-13.496    c6.182-1.274,12.223,2.703,13.496,8.885C135.78,460.899,131.803,466.942,125.622,468.216z M131.555,432.401    c-5.619-2.32-13.692-0.759-13.799-0.735c0,0-43.344-166.734-43.076-166.877l98.133,76.323c-5.127,12.219,1.426,22.83,3.977,25.963    L131.555,432.401z M335.088,524.241l-186.365-61.84c1.713-5.32,0.213-14.82-5.256-21.752l45.236-65.326    c7.482,3.508,17.232,1.258,19.318-1.138l129.112,146.136C336.344,521.567,335.658,522.876,335.088,524.241z M218.877,364.587    c1.698-2.685,2.916-5.676,3.543-8.838l160.124-13.988c2.983,8.792,10.386,15.141,19.132,17.023l-42.72,149.452    c-1.692,0.009-6.521,0.095-10.968,2.485L218.877,364.587z M361.375,545.397c-6.182,1.273-12.223-2.704-13.496-8.885    c-1.276-6.18,2.706-12.224,8.885-13.496c6.18-1.274,12.222,2.703,13.496,8.885C371.532,538.081,367.555,544.124,361.375,545.397z     M374.332,513.2c-0.471-0.341-0.953-0.662-1.445-0.971l44.273-154.885c3.341-1.396,6.277-3.446,8.693-5.967l80.976,21.791    c0.031,1.561,0.856,9.662,3.569,12.633L374.332,513.2z M510.596,359.176l-77.953-20.977c0.611-3.229,1.043-17.868-8.061-24.022    c0,0,56.986-153.571,57.604-153.639l38.926,188.917C516.698,351.673,513.086,355.077,510.596,359.176z M535.094,383.841    c-6.18,1.273-12.222-2.703-13.496-8.885c-1.273-6.18,2.704-12.223,8.884-13.496c6.183-1.273,12.223,2.703,13.497,8.885    C545.251,376.524,541.275,382.567,535.094,383.841z"></path></g><text transform="translate(243.28125 276.99998474121094)" fill="rgba(240, 240, 240, 1.0)" font-family="Graduate" font-size="64" data-element="company-name" dx="0 0 0 0">AZIZ</text></g></g></svg>